<svg width="18" height="23" viewBox="0 0 18 23" fill="none" xmlns="http://www.w3.org/2000/svg">
<path d="M15.2175 7.05522L8.97915 0.8125L2.74079 7.05522C-0.705285 10.5037 -0.705285 16.0922 2.74079 19.5407C4.46247 21.2636 6.72081 22.125 8.97915 22.125C11.2375 22.125 13.4958 21.2636 15.2175 19.5407C18.6636 16.0922 18.6636 10.5037 15.2175 7.05522ZM14.2395 14.1103C14.2259 14.4947 14.166 14.8654 14.0652 15.2198C13.7437 16.0649 13.0164 16.711 12.1201 16.9155C11.9512 16.9536 11.7769 16.9782 11.5971 16.9836H11.5916C11.5835 16.9836 11.5753 16.9836 11.5698 16.9836C11.5508 16.9836 11.529 16.9836 11.5099 16.9836C11.4908 16.9836 11.4745 16.9836 11.4554 16.9836C11.232 16.9809 11.0141 16.9645 10.8016 16.9318C10.5238 16.8909 10.2541 16.8228 9.99254 16.7355C8.60322 16.2667 7.50537 15.1708 7.03137 13.7832C7.00957 13.7232 6.9905 13.6605 6.97416 13.6005C6.97416 13.5978 6.97144 13.5951 6.97144 13.5924C6.89516 13.3334 6.84068 13.0662 6.81071 12.7936C6.70174 13.0499 6.61729 13.3198 6.55736 13.5978C6.55191 13.6224 6.54646 13.6469 6.54102 13.6714C6.52467 13.7532 6.51105 13.835 6.49743 13.9168C6.46474 14.1458 6.44567 14.3802 6.44567 14.6201C6.44567 14.8791 6.46746 15.1299 6.5056 15.3779C6.62819 16.1467 6.93602 16.85 7.38279 17.4498C6.94692 17.338 6.55464 17.1199 6.23046 16.8255C5.91173 16.5338 5.66111 16.1685 5.50855 15.7541C5.49766 15.8468 5.49493 15.9422 5.49493 16.0377C5.49493 16.1958 5.50855 16.3512 5.53307 16.5011C5.66928 17.308 6.15963 17.9923 6.83795 18.393C5.33966 17.8505 4.1955 16.5747 3.83591 14.9963C3.83591 14.9963 3.83591 14.9963 3.83591 14.9936C3.76508 14.6174 3.72694 14.233 3.71877 13.8404V13.8377C3.72422 13.6196 3.74329 13.407 3.77598 13.1971C3.76236 13.1916 3.75146 13.1835 3.73784 13.178C3.80867 12.2402 4.06747 11.3543 4.47337 10.5582C4.47609 10.809 4.49244 11.0544 4.5224 11.297C4.58778 11.8449 4.71582 12.3738 4.90106 12.8754C4.98824 13.1126 5.08903 13.3416 5.20072 13.5651C5.15714 13.1998 5.13262 12.8263 5.13262 12.4474C5.13262 12.352 5.13534 12.2566 5.13807 12.1612C5.13807 12.1503 5.13807 12.1394 5.13807 12.1257C5.15986 11.5124 5.23886 10.9126 5.37507 10.3347C5.51673 9.72406 5.71832 9.13795 5.97439 8.58183C6.01525 8.49187 6.05884 8.39918 6.10515 8.31195C6.72626 7.07158 7.61706 5.98933 8.70129 5.14424C9.12353 4.81711 9.57302 4.5227 10.047 4.2719C9.66564 4.60993 9.33874 5.00794 9.07995 5.45229C8.78846 5.95389 8.5896 6.51273 8.4997 7.10975C8.46701 7.32238 8.45066 7.54047 8.44521 7.76401C8.44521 7.78309 8.44521 7.8049 8.44521 7.82398C8.44521 8.08568 8.46701 8.34194 8.50787 8.59273C8.54328 8.80264 8.58959 9.0071 8.65225 9.2061C8.6577 9.23064 8.66587 9.25245 8.67404 9.27425C8.79391 9.65045 8.96008 10.0048 9.1644 10.332C9.36598 10.6564 9.60571 10.9535 9.87813 11.218C9.91627 11.267 9.9653 11.3106 10.0171 11.3488C10.1206 11.4197 10.2459 11.4633 10.3821 11.4633C10.7362 11.4633 11.025 11.1743 11.025 10.8199C11.025 10.2856 10.8888 9.78131 10.6518 9.34241C11.1776 9.47326 11.6652 9.69135 12.1065 9.97758C13 10.5637 13.6811 11.4469 14.0161 12.4856C14.1633 12.9436 14.2423 13.4315 14.2423 13.9386C14.2423 13.9931 14.2423 14.0503 14.2395 14.1103Z" fill="#F20F38"/>
</svg>
